<?xml version="1.0" encoding="utf-8" standalone="no"?>
<!DOCTYPE svg PUBLIC "-//W3C//DTD SVG 1.1//EN"
  "http://www.w3.org/Graphics/SVG/1.1/DTD/svg11.dtd">
<svg xmlns:xlink="http://www.w3.org/1999/xlink" width="745.511811pt" height="402.519685pt" viewBox="0 0 745.511811 402.519685" xmlns="http://www.w3.org/2000/svg" version="1.1">
 <metadata>
  <rdf:RDF xmlns:dc="http://purl.org/dc/elements/1.1/" xmlns:cc="http://creativecommons.org/ns#" xmlns:rdf="http://www.w3.org/1999/02/22-rdf-syntax-ns#">
   <cc:Work>
    <dc:type rdf:resource="http://purl.org/dc/dcmitype/StillImage"/>
    <dc:format>image/svg+xml</dc:format>
    <dc:creator>
     <cc:Agent>
      <dc:title>Matplotlib v3.11.1, https://matplotlib.org/</dc:title>
     </cc:Agent>
    </dc:creator>
   </cc:Work>
  </rdf:RDF>
 </metadata>
 <defs>
  <style type="text/css">*{stroke-linejoin: round; stroke-linecap: butt}</style>
 </defs>
 <g id="figure_1">
  <g id="patch_1">
   <path d="M 0 402.519685 
L 745.511811 402.519685 
L 745.511811 0 
L 0 0 
z
" style="fill: #ffffff"/>
  </g>
  <g id="axes_1">
   <g id="patch_2">
    <path d="M 72.359615 344.071164 
L 742.511571 344.071164 
L 742.511571 122.70072 
L 72.359615 122.70072 
z
" style="fill: #ffffff"/>
   </g>
   <g id="patch_3">
    <path d="M 72.359615 266.591508 
L 742.511571 266.591508 
L 742.511571 200.180375 
L 72.359615 200.180375 
z
" clip-path="url(#p7e2c618829)" style="fill: #e9e9e9; stroke: #e9e9e9; stroke-linejoin: miter"/>
   </g>
   <g id="matplotlib.axis_1">
    <g id="xtick_1">
     <g id="line2d_1"/>
     <g id="text_1">
      <text style="font-size: 24px; font-family: 'Segoe UI', 'Arial', 'DejaVu Sans'; text-anchor: middle" x="168.095609" y="365.338664" transform="rotate(-0 168.095609 365.338664)">re-ask</text>
     </g>
    </g>
    <g id="xtick_2">
     <g id="line2d_2"/>
     <g id="text_2">
      <text style="font-size: 24px; font-family: 'Segoe UI', 'Arial', 'DejaVu Sans'; text-anchor: middle" x="327.655598" y="365.593664" transform="rotate(-0 327.655598 365.593664)">speaker-free</text>
     </g>
    </g>
    <g id="xtick_3">
     <g id="line2d_3"/>
     <g id="text_3">
      <text style="font-size: 24px; font-family: 'Segoe UI', 'Arial', 'DejaVu Sans'" transform="translate(464.884338 366.619992)">user</text>
      <text style="font-size: 24px; font-family: 'Segoe UI', 'Arial', 'DejaVu Sans'" transform="translate(437.556213 392.295773)">(pre-reg.)</text>
     </g>
    </g>
    <g id="xtick_4">
     <g id="line2d_4"/>
     <g id="text_4">
      <text style="font-size: 24px; font-family: 'Segoe UI', 'Arial', 'DejaVu Sans'; text-anchor: middle" x="646.775577" y="365.04382" transform="rotate(-0 646.775577 365.04382)">expert</text>
     </g>
    </g>
   </g>
   <g id="matplotlib.axis_2">
    <g id="ytick_1">
     <g id="line2d_5">
      <path d="M 72.359615 321.934119 
L 742.511571 321.934119 
" clip-path="url(#p7e2c618829)" style="fill: none; stroke: #e9e9e9; stroke-width: 1.2; stroke-linecap: square"/>
     </g>
     <g id="line2d_6">
      <defs>
       <path id="m8a369579b6" d="M 0 0 
L -7 0 
" style="stroke: #000000; stroke-width: 1.4"/>
      </defs>
      <g>
       <use xlink:href="#m8a369579b6" x="72.359615" y="321.934119" style="stroke: #000000; stroke-width: 1.4"/>
      </g>
     </g>
     <g id="text_5">
      <text style="font-size: 24px; font-family: 'Segoe UI', 'Arial', 'DejaVu Sans'; text-anchor: end" x="61.859615" y="330.670448" transform="rotate(-0 61.859615 330.670448)">−8</text>
     </g>
    </g>
    <g id="ytick_2">
     <g id="line2d_7">
      <path d="M 72.359615 277.660031 
L 742.511571 277.660031 
" clip-path="url(#p7e2c618829)" style="fill: none; stroke: #e9e9e9; stroke-width: 1.2; stroke-linecap: square"/>
     </g>
     <g id="line2d_8">
      <g>
       <use xlink:href="#m8a369579b6" x="72.359615" y="277.660031" style="stroke: #000000; stroke-width: 1.4"/>
      </g>
     </g>
     <g id="text_6">
      <text style="font-size: 24px; font-family: 'Segoe UI', 'Arial', 'DejaVu Sans'; text-anchor: end" x="61.859615" y="286.396359" transform="rotate(-0 61.859615 286.396359)">−4</text>
     </g>
    </g>
    <g id="ytick_3">
     <g id="line2d_9">
      <path d="M 72.359615 233.385942 
L 742.511571 233.385942 
" clip-path="url(#p7e2c618829)" style="fill: none; stroke: #e9e9e9; stroke-width: 1.2; stroke-linecap: square"/>
     </g>
     <g id="line2d_10">
      <g>
       <use xlink:href="#m8a369579b6" x="72.359615" y="233.385942" style="stroke: #000000; stroke-width: 1.4"/>
      </g>
     </g>
     <g id="text_7">
      <text style="font-size: 24px; font-family: 'Segoe UI', 'Arial', 'DejaVu Sans'; text-anchor: end" x="61.859615" y="242.12227" transform="rotate(-0 61.859615 242.12227)">0</text>
     </g>
    </g>
    <g id="ytick_4">
     <g id="line2d_11">
      <path d="M 72.359615 189.111853 
L 742.511571 189.111853 
" clip-path="url(#p7e2c618829)" style="fill: none; stroke: #e9e9e9; stroke-width: 1.2; stroke-linecap: square"/>
     </g>
     <g id="line2d_12">
      <g>
       <use xlink:href="#m8a369579b6" x="72.359615" y="189.111853" style="stroke: #000000; stroke-width: 1.4"/>
      </g>
     </g>
     <g id="text_8">
      <text style="font-size: 24px; font-family: 'Segoe UI', 'Arial', 'DejaVu Sans'; text-anchor: end" x="61.859615" y="197.848181" transform="rotate(-0 61.859615 197.848181)">4</text>
     </g>
    </g>
    <g id="ytick_5">
     <g id="line2d_13">
      <path d="M 72.359615 144.837764 
L 742.511571 144.837764 
" clip-path="url(#p7e2c618829)" style="fill: none; stroke: #e9e9e9; stroke-width: 1.2; stroke-linecap: square"/>
     </g>
     <g id="line2d_14">
      <g>
       <use xlink:href="#m8a369579b6" x="72.359615" y="144.837764" style="stroke: #000000; stroke-width: 1.4"/>
      </g>
     </g>
     <g id="text_9">
      <text style="font-size: 24px; font-family: 'Segoe UI', 'Arial', 'DejaVu Sans'; text-anchor: end" x="61.859615" y="153.574093" transform="rotate(-0 61.859615 153.574093)">8</text>
     </g>
    </g>
    <g id="text_10">
     <text style="font-size: 26px; font-family: 'Segoe UI', 'Arial', 'DejaVu Sans'; text-anchor: middle" x="22.524615" y="233.385942" transform="rotate(-90 22.524615 233.385942)">difference (pp)</text>
    </g>
   </g>
   <g id="patch_4">
    <path d="M 107.462813 233.385942 
L 164.904409 233.385942 
L 164.904409 172.816775 
L 107.462813 172.816775 
z
" clip-path="url(#p7e2c618829)" style="fill: #0072b2; stroke: #0072b2; stroke-width: 2; stroke-linejoin: miter"/>
   </g>
   <g id="patch_5">
    <path d="M 267.022802 233.385942 
L 324.464398 233.385942 
L 324.464398 250.90863 
L 267.022802 250.90863 
z
" clip-path="url(#p7e2c618829)" style="fill: #0072b2; stroke: #0072b2; stroke-width: 2; stroke-linejoin: miter"/>
   </g>
   <g id="patch_6">
    <path d="M 426.582792 233.385942 
L 484.024388 233.385942 
L 484.024388 265.482664 
L 426.582792 265.482664 
z
" clip-path="url(#p7e2c618829)" style="fill: #0072b2; stroke: #0072b2; stroke-width: 2; stroke-linejoin: miter"/>
   </g>
   <g id="patch_7">
    <path d="M 586.142781 233.385942 
L 643.584378 233.385942 
L 643.584378 284.93526 
L 586.142781 284.93526 
z
" clip-path="url(#p7e2c618829)" style="fill: #0072b2; stroke: #0072b2; stroke-width: 2; stroke-linejoin: miter"/>
   </g>
   <g id="patch_8">
    <path d="M 171.286809 233.385942 
L 228.728405 233.385942 
L 228.728405 227.795774 
L 171.286809 227.795774 
z
" clip-path="url(#p7e2c618829)" style="fill: url(#h6a55f6137b); stroke: #007a5e; stroke-width: 2; stroke-linejoin: miter"/>
   </g>
   <g id="patch_9">
    <path d="M 330.846798 233.385942 
L 388.288394 233.385942 
L 388.288394 238.957349 
L 330.846798 238.957349 
z
" clip-path="url(#p7e2c618829)" style="fill: url(#h6a55f6137b); stroke: #007a5e; stroke-width: 2; stroke-linejoin: miter"/>
   </g>
   <g id="patch_10">
    <path d="M 490.406788 233.385942 
L 547.848384 233.385942 
L 547.848384 238.024881 
L 490.406788 238.024881 
z
" clip-path="url(#p7e2c618829)" style="fill: url(#h6a55f6137b); stroke: #007a5e; stroke-width: 2; stroke-linejoin: miter"/>
   </g>
   <g id="patch_11">
    <path d="M 649.966777 233.385942 
L 707.408373 233.385942 
L 707.408373 243.591617 
L 649.966777 243.591617 
z
" clip-path="url(#p7e2c618829)" style="fill: url(#h6a55f6137b); stroke: #007a5e; stroke-width: 2; stroke-linejoin: miter"/>
   </g>
   <g id="patch_12">
    <path d="M 72.359615 344.071164 
L 72.359615 122.70072 
" style="fill: none; stroke: #000000; stroke-width: 1.4; stroke-linejoin: miter; stroke-linecap: square"/>
   </g>
   <g id="patch_13">
    <path d="M 72.359615 344.071164 
L 742.511571 344.071164 
" style="fill: none; stroke: #000000; stroke-width: 1.4; stroke-linejoin: miter; stroke-linecap: square"/>
   </g>
   <g id="LineCollection_1">
    <path d="M 136.183611 189.67026 
L 136.183611 154.995237 
" clip-path="url(#p7e2c618829)" style="fill: none; stroke: #000000; stroke-width: 2"/>
    <path d="M 295.7436 268.587716 
L 295.7436 233.385942 
" clip-path="url(#p7e2c618829)" style="fill: none; stroke: #000000; stroke-width: 2"/>
    <path d="M 455.30359 281.553605 
L 455.30359 250.028018 
" clip-path="url(#p7e2c618829)" style="fill: none; stroke: #000000; stroke-width: 2"/>
    <path d="M 614.863579 303.754514 
L 614.863579 265.770888 
" clip-path="url(#p7e2c618829)" style="fill: none; stroke: #000000; stroke-width: 2"/>
   </g>
   <g id="line2d_15">
    <defs>
     <path id="mf27dffad55" d="M 4 0 
L -4 -0 
" style="stroke: #000000"/>
    </defs>
    <g clip-path="url(#p7e2c618829)">
     <use xlink:href="#mf27dffad55" x="136.183611" y="189.67026" style="fill: #1f77b4; stroke: #000000"/>
     <use xlink:href="#mf27dffad55" x="295.7436" y="268.587716" style="fill: #1f77b4; stroke: #000000"/>
     <use xlink:href="#mf27dffad55" x="455.30359" y="281.553605" style="fill: #1f77b4; stroke: #000000"/>
     <use xlink:href="#mf27dffad55" x="614.863579" y="303.754514" style="fill: #1f77b4; stroke: #000000"/>
    </g>
   </g>
   <g id="line2d_16">
    <g clip-path="url(#p7e2c618829)">
     <use xlink:href="#mf27dffad55" x="136.183611" y="154.995237" style="fill: #1f77b4; stroke: #000000"/>
     <use xlink:href="#mf27dffad55" x="295.7436" y="233.385942" style="fill: #1f77b4; stroke: #000000"/>
     <use xlink:href="#mf27dffad55" x="455.30359" y="250.028018" style="fill: #1f77b4; stroke: #000000"/>
     <use xlink:href="#mf27dffad55" x="614.863579" y="265.770888" style="fill: #1f77b4; stroke: #000000"/>
    </g>
   </g>
   <g id="text_11">
    <text style="font-size: 24px; font-family: 'Segoe UI', 'Arial', 'DejaVu Sans'; text-anchor: middle" x="136.183611" y="145.517046" transform="rotate(-0 136.183611 145.517046)">5.5</text>
   </g>
   <g id="text_12">
    <text style="font-size: 24px; font-family: 'Segoe UI', 'Arial', 'DejaVu Sans'; text-anchor: middle" x="295.7436" y="290.487782" transform="rotate(-0 295.7436 290.487782)">−1.6</text>
   </g>
   <g id="text_13">
    <text style="font-size: 24px; font-family: 'Segoe UI', 'Arial', 'DejaVu Sans'; text-anchor: middle" x="455.30359" y="303.45367" transform="rotate(-0 455.30359 303.45367)">−2.9</text>
   </g>
   <g id="text_14">
    <text style="font-size: 24px; font-family: 'Segoe UI', 'Arial', 'DejaVu Sans'; text-anchor: middle" x="614.863579" y="325.65458" transform="rotate(-0 614.863579 325.65458)">−4.7</text>
   </g>
   <g id="LineCollection_2">
    <path d="M 200.007607 233.385942 
L 200.007607 222.462606 
" clip-path="url(#p7e2c618829)" style="fill: none; stroke: #000000; stroke-width: 2"/>
    <path d="M 359.567596 244.870087 
L 359.567596 233.385942 
" clip-path="url(#p7e2c618829)" style="fill: none; stroke: #000000; stroke-width: 2"/>
    <path d="M 519.127586 245.603377 
L 519.127586 230.576673 
" clip-path="url(#p7e2c618829)" style="fill: none; stroke: #000000; stroke-width: 2"/>
    <path d="M 678.687575 250.102288 
L 678.687575 237.127999 
" clip-path="url(#p7e2c618829)" style="fill: none; stroke: #000000; stroke-width: 2"/>
   </g>
   <g id="line2d_17">
    <g clip-path="url(#p7e2c618829)">
     <use xlink:href="#mf27dffad55" x="200.007607" y="233.385942" style="fill: #1f77b4; stroke: #000000"/>
     <use xlink:href="#mf27dffad55" x="359.567596" y="244.870087" style="fill: #1f77b4; stroke: #000000"/>
     <use xlink:href="#mf27dffad55" x="519.127586" y="245.603377" style="fill: #1f77b4; stroke: #000000"/>
     <use xlink:href="#mf27dffad55" x="678.687575" y="250.102288" style="fill: #1f77b4; stroke: #000000"/>
    </g>
   </g>
   <g id="line2d_18">
    <g clip-path="url(#p7e2c618829)">
     <use xlink:href="#mf27dffad55" x="200.007607" y="222.462606" style="fill: #1f77b4; stroke: #000000"/>
     <use xlink:href="#mf27dffad55" x="359.567596" y="233.385942" style="fill: #1f77b4; stroke: #000000"/>
     <use xlink:href="#mf27dffad55" x="519.127586" y="230.576673" style="fill: #1f77b4; stroke: #000000"/>
     <use xlink:href="#mf27dffad55" x="678.687575" y="237.127999" style="fill: #1f77b4; stroke: #000000"/>
    </g>
   </g>
   <g id="text_15">
    <text style="font-size: 24px; font-family: 'Segoe UI', 'Arial', 'DejaVu Sans'; text-anchor: middle" x="200.007607" y="212.984415" transform="rotate(-0 200.007607 212.984415)">0.5</text>
   </g>
   <g id="text_16">
    <text style="font-size: 24px; font-family: 'Segoe UI', 'Arial', 'DejaVu Sans'; text-anchor: middle" x="359.567596" y="266.770152" transform="rotate(-0 359.567596 266.770152)">−0.5</text>
   </g>
   <g id="text_17">
    <text style="font-size: 24px; font-family: 'Segoe UI', 'Arial', 'DejaVu Sans'; text-anchor: middle" x="519.127586" y="267.503442" transform="rotate(-0 519.127586 267.503442)">−0.4</text>
   </g>
   <g id="text_18">
    <text style="font-size: 24px; font-family: 'Segoe UI', 'Arial', 'DejaVu Sans'; text-anchor: middle" x="678.687575" y="272.002353" transform="rotate(-0 678.687575 272.002353)">−0.9</text>
   </g>
   <g id="line2d_19">
    <path d="M 72.359615 233.385942 
L 742.511571 233.385942 
" clip-path="url(#p7e2c618829)" style="fill: none; stroke: #000000; stroke-width: 1.6; stroke-linecap: square"/>
   </g>
  </g>
  <g id="legend_1">
   <g id="patch_14">
    <path d="M 205.243406 39.6225 
L 253.243406 39.6225 
L 253.243406 22.8225 
L 205.243406 22.8225 
z
" style="fill: #0072b2; stroke: #0072b2; stroke-width: 2; stroke-linejoin: miter"/>
   </g>
   <g id="text_19">
    <text style="font-size: 24px; font-family: 'Segoe UI', 'Arial', 'DejaVu Sans'; text-anchor: start" x="262.843406" y="39.6225" transform="rotate(-0 262.843406 39.6225)">q4_K_M − fp16 (95% CI)</text>
   </g>
   <g id="patch_15">
    <path d="M 205.243406 75.165 
L 253.243406 75.165 
L 253.243406 58.365 
L 205.243406 58.365 
z
" style="fill: url(#h9bf7a003ed); stroke: #007a5e; stroke-width: 2; stroke-linejoin: miter"/>
   </g>
   <g id="text_20">
    <text style="font-size: 24px; font-family: 'Segoe UI', 'Arial', 'DejaVu Sans'; text-anchor: start" x="262.843406" y="75.165" transform="rotate(-0 262.843406 75.165)">q8_0 − fp16 (90% CI)</text>
   </g>
   <g id="patch_16">
    <path d="M 205.243406 110.4525 
L 253.243406 110.4525 
L 253.243406 93.6525 
L 205.243406 93.6525 
z
" style="fill: #e9e9e9; stroke: #e9e9e9; stroke-linejoin: miter"/>
   </g>
   <g id="text_21">
    <text style="font-size: 24px; font-family: 'Segoe UI', 'Arial', 'DejaVu Sans'; text-anchor: start" x="262.843406" y="110.4525" transform="rotate(-0 262.843406 110.4525)">±3 pp equivalence margin</text>
   </g>
  </g>
 </g>
 <defs>
  <clipPath id="p7e2c618829">
   <rect x="72.359615" y="122.70072" width="670.151956" height="221.370444"/>
  </clipPath>
 </defs>
 <defs>
  <pattern id="h6a55f6137b" patternUnits="userSpaceOnUse" x="0" y="0" width="72" height="72">
   <rect x="0" y="0" width="73" height="73" fill="#ffffff"/>
   <path d="M -36 36 
L 36 -36 
M -30 42 
L 42 -30 
M -24 48 
L 48 -24 
M -18 54 
L 54 -18 
M -12 60 
L 60 -12 
M -6 66 
L 66 -6 
M 0 72 
L 72 0 
M 6 78 
L 78 6 
M 12 84 
L 84 12 
M 18 90 
L 90 18 
M 24 96 
L 96 24 
M 30 102 
L 102 30 
M 36 108 
L 108 36 
" style="fill: #007a5e; stroke: #007a5e; stroke-width: 2.0; stroke-linecap: butt; stroke-linejoin: miter"/>
  </pattern>
  <pattern id="h9bf7a003ed" patternUnits="userSpaceOnUse" x="0" y="0" width="72" height="72">
   <rect x="0" y="0" width="73" height="73" fill="#ffffff"/>
   <path d="M -36 36 
L 36 -36 
M -30 42 
L 42 -30 
M -24 48 
L 48 -24 
M -18 54 
L 54 -18 
M -12 60 
L 60 -12 
M -6 66 
L 66 -6 
M 0 72 
L 72 0 
M 6 78 
L 78 6 
M 12 84 
L 84 12 
M 18 90 
L 90 18 
M 24 96 
L 96 24 
M 30 102 
L 102 30 
M 36 108 
L 108 36 
" style="fill: #007a5e; stroke: #007a5e; stroke-width: 1.0; stroke-linecap: butt; stroke-linejoin: miter"/>
  </pattern>
 </defs>
</svg>
